<svg width="1161" height="1036" viewBox="0 0 1161 1036" fill="none" xmlns="http://www.w3.org/2000/svg">
<path d="M534.14 5.46514C532.145 5.65129 524.803 6.30731 517.822 6.79767C467.326 10.8949 411.282 22.6406 363.632 39.0387C255.765 76.2651 164.575 138.762 96.0993 222.504C80.3249 241.81 70.5874 256.929 57.329 282.815C28.0525 339.863 11.3123 398.447 6.13551 461.08C4.35782 482.792 4.85521 487.14 7.13028 469.776C14.047 417.764 31.0967 362.885 54.6815 317.277C99.537 230.524 167.95 158.636 257.05 104.792C280.948 90.3028 292.59 84.1103 316.614 73.1673C380.557 43.9071 449.245 26.3595 527.022 19.4223C547.146 17.6391 599.13 17.2322 620.012 18.6648C696.098 24.0043 766.406 41.1878 831.935 70.4447C998.082 144.647 1111.9 283.763 1139.57 446.531C1146.51 487.082 1147.71 534.154 1142.77 575.418C1135.83 633.961 1117.62 690.709 1089.03 743.072C1017.66 873.534 887.632 971.429 732.793 1011.18C697.68 1020.16 661.085 1026.18 620.655 1029.67C603.249 1031.1 555.712 1031.69 538.1 1030.62C473.28 1026.83 415.28 1015.46 361.734 995.973C342.975 989.111 307.528 973.912 291.569 965.887C200.465 919.694 125.294 851.936 74.2024 769.687C56.9558 741.843 37.0182 699.036 27.2769 668.679C25.7792 664.102 24.4735 660.571 24.2937 660.734C23.5736 661.307 29.656 679.696 35.2467 694.301C58.9072 755.445 97.7931 814.867 146.375 864.09C159.575 877.471 185.116 900.051 200.204 911.715C320.541 1004.79 481.034 1048.99 640.193 1032.81C822.285 1014.41 983.21 921.132 1076.33 779.997C1120.39 713.331 1145.54 642.709 1154.16 561.649C1155.24 551.557 1155.49 540.508 1155.24 516.08C1155 483.267 1154.36 473.841 1150.49 449.217C1129.04 310.399 1046.33 187.181 918.647 103.953C840.286 52.8439 747.681 19.8128 651.578 8.83718C621.694 5.42057 607.714 4.70814 571.787 4.9147C553.097 4.98669 536.134 5.27898 534.14 5.46514Z" fill="white"/>
<path d="M533.577 30.7899C494.682 33.5329 452.018 40.5157 415.459 50.0832C271.939 87.6738 147.464 178.565 77.79 296.508C57.1818 331.356 39.4185 387.453 32.241 440.597C30.1311 456.346 30.9379 455.369 34.8394 437.34C45.2529 390.203 58.6805 354.074 81.2221 312.994C117.039 247.721 168.004 191.048 232.051 145.096C248.175 133.526 279.374 114.269 296.884 105.101C406.093 48.0231 530.989 25.9844 656.537 41.8334C734.3 51.5865 809.224 76.6948 876.301 115.447C945.202 155.224 1004.55 210.118 1047.65 273.922C1058.24 289.593 1074.96 319.217 1082.85 336.374C1103.07 380.548 1115.58 424.577 1121.33 472.56C1123.3 488.339 1124.49 534.847 1123.38 550.342C1118.77 615.548 1100.79 676.97 1069.43 734.447C1042.26 784.132 1012.34 822.159 967.391 863.922C952.829 877.407 951.841 878.468 960.84 871.018C979.103 855.632 1003.53 830.493 1021.28 808.824C1056.95 765.242 1086.63 712.06 1103.98 660.563C1115.61 626.231 1122.37 594.378 1125.9 557.567C1127.63 539.727 1127.43 492.803 1125.54 476.539C1118.17 411.16 1100.75 356.953 1069.24 300.986C1032.01 234.77 983.575 181.675 918.238 135.484C832.158 74.6347 730.004 39.3845 615.6 30.9756C598.166 29.6612 550.623 29.6095 533.577 30.7899Z" fill="white"/>
<path d="M529.714 52.608C456.101 58.6064 389.951 75.8804 325.562 105.791C289.529 122.528 256.161 142.699 224.014 166.886C206.995 179.757 170.227 213.596 160.996 224.919C115.107 281.126 82.5964 350.389 69.1457 420.302C66.2153 435.658 66.6705 435.813 70.602 420.767C82.4792 374.822 105.84 324.943 134.552 284.028C187.685 208.299 262.572 148.666 353.273 109.638C405.941 86.969 458.613 73.7334 522.51 67.05C540.275 65.2156 604.416 64.657 622.305 66.2076C712.389 74.1138 786.927 96.9692 859.753 139.036C906.113 165.791 952.313 203.674 985.729 242.443C1046.13 312.24 1080.95 391.628 1091.12 482.613C1092.72 496.945 1093.22 537.898 1091.92 553.153C1083.56 650.819 1044.52 738.548 975.602 814.232C962.052 829.156 928.067 860.139 912.129 872.19C859.544 912.033 802.764 940.881 739.175 960.139C705.979 970.309 671.661 977.188 633.325 981.375C615.38 983.373 567.488 984.696 547.155 983.741C467.002 979.984 390.05 960.706 323.76 927.911C308.896 920.518 277.776 902.523 264.531 893.657C187.709 842.126 129.878 775.442 94.7104 697.832C82.0929 670.172 71.7854 637.646 65.762 607.082C62.6069 591.076 62.325 590.112 62.9309 596.232C63.639 603.48 67.6421 622.62 71.0394 635.639C104.42 761.085 196.323 868.707 323.796 931.539C387.624 962.994 454.22 981.111 530.408 987.578C547.571 989.057 600.649 989.12 618.962 987.682C708.441 980.599 788.041 956.384 863.095 913.359C894.128 895.556 925.02 872.916 952.711 847.656C1032.01 775.31 1083.51 681.943 1098.31 583.713C1102.14 558.428 1102.91 545.356 1102.61 515.124C1102.31 484.892 1101.27 471.843 1096.93 446.66C1082.09 360.411 1037.79 276.625 971.335 209.565C959.969 198.096 936.991 177.822 923.091 166.949C857.983 116.401 780.507 81.0847 696.223 63.5112C670.675 58.2666 645.962 54.8661 613.999 52.2817C601.65 51.307 543.041 51.5548 529.714 52.608Z" fill="white"/>
<path d="M530.815 80.8951C407.253 91.2258 296.042 138.734 210.19 217.774C179.176 246.381 154.074 276.528 132.109 311.714C118.893 332.843 104.57 370.111 96.4759 404.318C92.819 419.603 89.2066 439.322 88.6511 447.23C88.2437 451.831 88.6851 450.616 91.1215 440.265C107.91 368.457 143.093 303.272 196.049 246.09C208.884 232.223 238.913 204.918 253.41 193.933C325.986 139.005 411.464 103.913 502.344 91.7322C524.271 88.7978 533.609 88.0362 559.004 87.1548C658.05 83.9836 755.178 106.718 836.84 152.303C869.779 170.678 895.732 189.141 924.569 214.663C1030.12 308.327 1080.95 436.861 1065.05 570.018C1055.43 650.848 1019.65 728.86 962.419 793.594C949.95 807.699 938.452 819.211 921.818 834.254C913.816 841.45 910.223 845.042 913.642 842.258C922.734 835.049 945.654 813.558 955.08 803.603C995.026 760.935 1027.8 708.44 1046.78 656.519C1064.97 606.947 1073.16 555.242 1070.92 503.828C1069.01 457.813 1061 419.533 1044.23 376.283C1011.17 291.229 950.369 217.889 868.994 164.802C794.835 116.463 707.992 88.0368 612.016 80.6073C598.849 79.5622 544.05 79.7623 530.815 80.8951Z" fill="white"/>
<path d="M539.223 104.979C385.356 115.124 247.296 190.381 165.828 308.471C156.528 321.972 151.36 331.39 144.889 346.467C130.794 379.379 122.21 409.964 117.207 444.778C113.984 467.152 113.254 484.739 114.118 516.576C114.42 528.506 115.929 525.262 115.894 512.684C115.82 478.337 126.296 428.377 141.699 390.208C183.568 286.158 272.071 199.989 384.117 154.325C478.634 115.814 581.974 106.623 683.441 127.771C716.172 134.539 743.932 143.142 773.363 155.595C817.919 174.39 855.077 197.309 891.499 228.299C968.005 293.461 1014.53 372.461 1029.13 462.02C1034.55 495.413 1035.53 529.83 1031.95 562.368C1021.64 655.866 976.148 742.223 901.609 809.511C828.689 875.328 735.924 916.559 634.153 928.472C606.876 931.715 564.428 933.051 541.184 931.406C480.898 927.24 431.699 915.921 379.765 894.316C285.738 855.174 209.036 788.564 163.663 706.647C157.379 695.276 148.952 678.287 145.697 670.346C144.49 667.619 143.379 665.456 143.199 665.62C143.02 665.864 144.698 670.278 147.018 675.49C166.157 720 195.344 762.369 232.194 799.725C251.259 818.999 280.986 842.817 306.557 859.349C345.461 884.504 392.851 905.44 439.889 918.318C616.302 966.752 808.693 916.941 930.552 791.412C980.75 739.747 1017.29 674.465 1033.32 608.068C1056.14 513.366 1041.35 413.812 991.954 329.123C952.901 262.123 892.804 204.739 820.276 165.169C737.073 119.765 637.691 98.5092 539.223 104.979Z" fill="white"/>
<path d="M60.6036 581.345C60.6165 582.635 60.8028 583.116 61.0669 582.306C61.241 581.579 61.2297 580.45 61.0426 579.888C60.7655 579.408 60.5898 579.974 60.6036 581.345Z" fill="white"/>
<path d="M61.5797 588.186C61.5952 589.718 61.7831 590.36 62.0471 589.551C62.2213 588.823 62.2083 587.533 62.0187 586.729C61.7393 586.007 61.5643 586.654 61.5797 588.186Z" fill="white"/>
<path d="M23.1822 658.49C23.1912 659.377 23.4657 659.616 23.7314 658.967C23.9979 658.4 23.8999 657.675 23.6253 657.437C23.3499 657.118 23.0826 657.605 23.1822 658.49Z" fill="white"/>
</svg>
