<svg width="1165" height="1036" viewBox="0 0 1165 1036" fill="none" xmlns="http://www.w3.org/2000/svg">
<path d="M621.331 1035.51C623.327 1035.35 630.679 1034.8 637.666 1034.41C688.216 1031.04 744.423 1020.11 792.304 1004.4C900.695 968.727 992.776 907.549 1062.45 824.802C1078.5 805.725 1088.45 790.748 1102.08 765.055C1132.18 708.435 1149.76 650.097 1155.84 587.545C1157.93 565.861 1157.49 561.507 1154.97 578.836C1147.3 630.743 1129.47 685.371 1105.23 730.635C1059.13 816.733 989.687 887.629 899.821 940.184C875.717 954.328 863.987 960.352 839.808 970.948C775.451 999.285 706.518 1015.84 628.649 1021.66C608.501 1023.15 556.516 1022.81 535.657 1021.08C459.656 1014.64 389.603 996.449 324.502 966.252C159.44 889.666 47.6399 748.926 22.3092 585.776C15.9532 545.13 15.4317 498.045 20.9632 456.857C28.747 398.42 47.7724 341.94 77.121 289.994C150.354 160.572 281.78 64.56 437.176 27.0454C472.415 18.5668 509.092 13.0741 549.569 10.1686C566.993 8.99263 614.534 9.08372 632.129 10.4074C696.887 15.127 754.718 27.3313 807.977 47.5892C826.636 54.7198 861.86 70.4282 877.701 78.6821C968.131 126.181 1042.32 195.014 1092.22 277.991C1109.07 306.08 1128.38 349.17 1137.69 379.663C1139.12 384.262 1140.37 387.811 1140.56 387.65C1141.29 387.087 1135.47 368.614 1130.09 353.93C1107.31 292.451 1069.28 232.475 1021.42 182.558C1008.41 168.989 983.196 146.043 968.278 134.163C849.293 39.3641 689.453 -7.13927 530.077 6.74507C347.739 22.5204 185.488 113.475 90.345 253.255C45.3304 319.28 19.1686 389.533 9.38193 470.46C8.15878 480.536 7.74795 491.58 7.64198 516.009C7.4089 548.822 7.91233 558.256 11.4343 582.934C30.8814 722.046 111.814 846.442 238.281 931.5C315.898 983.731 408.018 1018.09 503.953 1030.45C533.785 1034.3 547.753 1035.21 583.679 1035.52C602.368 1035.72 619.334 1035.67 621.331 1035.51Z" fill="white"/>
<path d="M622.257 1010.2C661.189 1008.02 703.948 1001.65 740.641 992.607C884.687 957.086 1010.46 867.997 1081.82 751.068C1102.93 716.521 1121.5 660.685 1129.44 607.65C1131.78 591.933 1130.96 592.899 1126.8 610.87C1115.71 657.852 1101.76 693.783 1078.63 734.535C1041.88 799.285 990.1 855.219 925.398 900.244C909.109 911.581 877.636 930.387 859.996 939.302C749.976 994.802 624.777 1015.04 499.469 997.386C421.854 986.514 347.3 960.33 280.788 920.616C212.467 879.851 153.918 824.109 111.737 759.691C101.372 743.869 85.0804 714.007 77.4435 696.739C57.858 652.278 45.9832 608.074 40.9295 560.012C39.1836 544.207 38.6596 497.686 39.9969 482.209C45.5416 417.076 64.4058 355.919 96.5889 298.9C124.474 249.612 154.94 212.019 200.482 170.908C215.237 157.633 216.24 156.587 207.135 163.906C188.652 179.028 163.867 203.812 145.81 225.224C109.514 268.288 79.0734 321.037 60.978 372.279C48.8539 406.44 41.6395 438.192 37.5788 474.948C35.5962 492.762 35.1205 539.684 36.7736 555.973C43.2033 621.452 59.8422 675.904 90.5352 732.319C126.808 799.064 174.479 852.85 239.144 899.978C324.339 962.059 425.975 998.777 540.247 1008.83C557.659 1010.4 605.197 1011.13 622.257 1010.2Z" fill="white"/>
<path d="M626.434 988.438C700.126 983.5 766.518 967.18 831.331 938.199C867.602 921.982 901.256 902.294 933.748 878.573C950.95 865.948 988.202 832.641 997.595 821.452C1044.29 765.912 1077.79 697.124 1092.25 627.412C1095.4 612.1 1094.95 611.938 1090.8 626.926C1078.26 672.696 1054.19 722.233 1024.89 762.73C970.67 837.687 894.931 896.235 803.678 933.953C750.69 955.862 697.833 968.338 633.845 974.101C616.056 975.679 551.914 975.315 534.049 973.507C444.088 964.304 369.887 940.378 297.674 897.268C251.704 869.849 206.054 831.304 173.2 792.058C113.809 721.399 80.1326 641.517 71.2738 550.396C69.8845 536.042 69.9714 495.086 71.4891 479.851C81.2571 382.315 121.555 295.158 191.557 220.474C205.32 205.746 239.747 175.256 255.857 163.435C309.011 124.354 366.2 96.3262 430.06 77.9858C463.399 68.2943 497.812 61.9103 536.205 58.2752C554.176 56.5359 602.083 55.9021 622.4 57.1504C702.49 62.0606 779.156 82.4439 844.968 116.19C859.724 123.797 890.581 142.238 903.697 151.293C979.77 203.925 1036.63 271.435 1070.68 349.543C1082.9 377.382 1092.74 410.053 1098.32 440.7C1101.24 456.75 1101.51 457.718 1100.99 451.59C1100.39 444.332 1096.66 425.137 1093.45 412.07C1061.88 286.156 971.539 177.222 844.984 112.562C781.616 80.1912 715.287 61.1177 639.2 53.5545C622.06 51.8286 568.989 51.0013 550.657 52.1755C461.085 57.97 381.145 81.0364 305.479 122.977C274.193 140.331 242.978 162.524 214.926 187.383C134.597 258.58 81.755 351.196 65.5434 449.203C61.3513 474.43 60.3874 487.489 60.2562 517.722C60.1251 547.956 60.9757 561.018 64.9488 586.261C78.5457 672.715 121.637 757.13 187.119 825.14C198.319 836.771 221.002 857.374 234.744 868.445C299.118 919.926 376.078 956.354 460.1 975.139C485.569 980.75 510.231 984.506 542.153 987.551C554.487 988.703 613.094 989.299 626.434 988.438Z" fill="white"/>
<path d="M625.741 960.138C749.438 951.587 861.322 905.685 948.303 827.889C979.726 799.731 1005.26 769.949 1027.73 735.082C1041.25 714.146 1056.11 677.088 1064.69 643C1068.57 627.77 1072.46 608.105 1073.13 600.206C1073.61 595.611 1073.15 596.82 1070.56 607.134C1052.74 678.694 1016.62 743.365 962.851 799.779C949.817 813.46 919.398 840.33 904.744 851.105C831.385 904.982 745.411 938.841 654.365 949.712C632.398 952.33 623.05 952.957 597.645 953.473C498.564 955.218 401.773 931.087 320.775 884.332C288.105 865.484 262.42 846.65 233.954 820.715C129.759 725.541 80.7829 596.289 98.5976 463.375C109.381 382.692 146.28 305.203 204.441 241.299C217.112 227.376 228.774 216.03 245.623 201.228C253.728 194.149 257.373 190.608 253.913 193.343C244.719 200.42 221.492 221.579 211.923 231.397C171.367 273.485 137.845 325.504 118.115 377.146C99.2114 426.451 90.2778 478.033 91.7785 529.473C93.0304 575.511 100.485 613.902 116.627 657.389C148.464 742.911 208.203 817.118 288.805 871.371C362.26 920.773 448.685 950.446 544.545 959.257C557.695 960.491 612.491 961.08 625.741 960.138Z" fill="white"/>
<path d="M617.68 935.935C771.678 928.007 910.807 854.745 993.966 737.839C1003.46 724.474 1008.76 715.132 1015.45 700.149C1030.02 667.443 1039.04 636.985 1044.54 602.247C1048.09 579.921 1049.07 562.347 1048.67 530.5C1048.54 518.568 1046.98 521.79 1046.84 534.367C1046.41 568.711 1035.22 618.515 1019.27 656.458C975.907 759.895 886.173 844.781 773.481 888.827C678.42 925.974 574.958 933.676 473.805 911.069C441.175 903.831 413.542 894.829 384.294 881.954C340.013 862.52 303.189 839.068 267.216 807.556C191.656 741.3 146.276 661.638 132.965 571.879C128.03 538.411 127.544 503.984 131.586 471.501C143.241 378.161 189.974 292.467 265.474 226.259C339.334 161.499 432.683 121.608 534.614 111.161C561.936 108.311 604.399 107.586 627.616 109.565C687.837 114.599 736.868 126.625 788.485 148.976C881.939 189.467 957.674 257.174 1001.86 339.736C1007.98 351.197 1016.16 368.304 1019.3 376.292C1020.47 379.036 1021.55 381.214 1021.73 381.054C1021.92 380.812 1020.3 376.375 1018.06 371.13C999.562 326.349 970.987 283.563 934.679 245.682C915.893 226.135 886.512 201.891 861.182 184.993C822.644 159.281 775.56 137.664 728.713 124.11C553.015 73.142 359.927 120.179 236.274 243.94C185.337 294.877 147.858 359.627 130.877 425.786C106.698 520.149 120.055 619.906 168.224 705.298C206.308 772.852 265.572 831.095 337.523 871.706C420.064 918.303 519.129 940.987 617.68 935.935Z" fill="white"/>
<path d="M1103.11 466.509C1103.11 465.219 1102.93 464.735 1102.66 465.541C1102.47 466.266 1102.47 467.395 1102.65 467.959C1102.92 468.444 1103.1 467.88 1103.11 466.509Z" fill="white"/>
<path d="M1102.23 459.654C1102.24 458.122 1102.06 457.477 1101.78 458.283C1101.6 459.008 1101.59 460.298 1101.77 461.105C1102.04 461.831 1102.22 461.186 1102.23 459.654Z" fill="white"/>
<path d="M1141.64 389.91C1141.64 389.023 1141.37 388.781 1141.09 389.425C1140.82 389.989 1140.91 390.715 1141.18 390.957C1141.45 391.28 1141.72 390.797 1141.64 389.91Z" fill="white"/>
</svg>
