<svg width="1839" height="1036" viewBox="0 0 1839 1036" fill="none" xmlns="http://www.w3.org/2000/svg">
<g filter="url(#filter0_d_12_324)">
<path d="M850.457 -248.821C847.282 -248.558 835.593 -247.633 824.48 -246.953C744.093 -241.211 654.816 -224.096 578.861 -199.975C406.917 -145.215 261.312 -52.6183 151.686 71.8513C126.432 100.547 110.817 123.038 89.5148 161.572C42.4775 246.494 15.3773 333.802 6.64636 427.236C3.64659 459.625 4.40386 466.117 8.1609 440.221C19.5771 362.65 47.1406 280.874 85.0306 212.983C157.093 83.8457 266.527 -22.9347 408.737 -102.633C446.88 -124.08 465.455 -133.235 503.771 -149.389C605.755 -192.585 715.198 -218.265 839.02 -228.044C871.059 -230.557 953.786 -230.78 987.005 -228.488C1108.04 -219.958 1219.79 -193.795 1323.83 -149.648C1587.64 -37.6838 1767.66 170.773 1810.43 413.89C1821.15 474.458 1822.69 544.718 1814.51 606.262C1803 693.58 1773.57 778.136 1727.65 856.071C1613.07 1050.24 1405.38 1195.38 1158.66 1253.56C1102.72 1266.71 1044.43 1275.42 980.069 1280.33C952.359 1282.33 876.709 1282.86 848.69 1281.14C745.571 1275.01 653.363 1257.61 568.309 1228.13C538.51 1217.75 482.222 1194.8 456.89 1182.71C312.278 1113.1 193.19 1011.42 112.534 888.299C85.3079 846.618 53.9177 782.586 38.6551 737.21C36.3078 730.368 34.2577 725.089 33.9703 725.331C32.8199 726.182 42.3543 753.669 51.136 775.506C88.3062 866.932 149.718 955.9 226.641 1029.72C247.541 1049.79 288.007 1083.67 311.924 1101.19C502.687 1240.99 757.735 1308.13 1011.14 1285.16C1301.05 1259.05 1557.87 1121.03 1707.16 911.084C1777.8 811.918 1818.37 706.707 1832.73 585.798C1834.53 570.745 1835.01 554.257 1834.81 517.799C1834.69 468.828 1833.75 454.756 1827.77 417.979C1794.74 210.65 1664.08 26.1506 1461.56 -99.0014C1337.26 -175.854 1190.16 -225.833 1037.31 -242.922C989.785 -248.241 967.544 -249.408 910.371 -249.365C880.629 -249.395 853.632 -249.084 850.457 -248.821Z" fill="white"/>
<path d="M849.364 -211.031C787.446 -207.224 719.5 -197.118 661.248 -183.11C432.565 -128.069 233.769 6.65636 121.967 182.16C88.8986 234.013 60.19 317.602 48.3499 396.86C44.8685 420.348 46.16 418.895 52.5105 392.018C69.4528 321.748 91.1048 267.929 127.299 206.789C184.809 109.64 266.357 25.4376 368.638 -42.6676C394.388 -59.8155 444.187 -88.3236 472.123 -101.877C646.36 -186.254 845.282 -218.222 1044.95 -193.642C1168.62 -178.513 1287.64 -140.488 1394.08 -82.1603C1503.41 -22.2885 1597.42 60.0722 1665.51 155.611C1682.24 179.077 1708.61 223.411 1721.02 249.073C1752.86 315.148 1772.42 380.948 1781.18 452.601C1784.2 476.163 1785.73 545.58 1783.84 568.696C1775.99 665.975 1746.9 757.508 1696.54 843.055C1652.91 917.003 1604.99 973.533 1533.14 1035.53C1509.86 1055.55 1508.28 1057.12 1522.66 1046.07C1551.85 1023.24 1590.91 985.906 1619.32 953.699C1676.43 888.921 1724.08 809.771 1752.1 733.045C1770.88 681.894 1781.89 634.408 1787.79 579.498C1790.68 552.885 1790.73 482.855 1787.86 458.57C1776.64 360.944 1749.35 279.917 1699.66 196.16C1640.93 97.0658 1564.27 17.4704 1460.66 -51.9476C1324.16 -143.393 1161.87 -196.754 979.886 -210.148C952.154 -212.239 876.498 -212.667 849.364 -211.031Z" fill="white"/>
<path d="M843.044 -178.498C725.855 -170.09 620.453 -144.799 517.753 -100.635C460.281 -75.9235 407.024 -46.0673 355.677 -10.2083C328.493 8.8749 269.717 59.1051 254.938 75.9349C181.472 159.479 129.192 262.607 107.237 366.844C102.453 389.739 103.176 389.975 109.551 367.549C128.813 299.068 166.379 224.802 212.393 163.953C297.539 51.328 417.179 -37.1146 561.82 -94.6898C645.81 -128.132 729.732 -147.496 831.467 -156.999C859.751 -159.605 961.823 -159.965 990.279 -157.519C1133.57 -145.055 1252 -110.396 1367.56 -47.0784C1441.13 -6.80766 1514.35 50.0705 1567.22 108.175C1662.79 212.785 1717.58 331.521 1733.04 467.38C1735.47 488.781 1735.95 549.903 1733.76 572.66C1719.68 718.354 1656.87 848.99 1546.6 961.432C1524.92 983.605 1470.6 1029.59 1445.14 1047.46C1361.14 1106.53 1270.56 1149.17 1169.22 1177.44C1116.31 1192.37 1061.65 1202.38 1000.61 1208.35C972.04 1211.2 895.818 1212.82 863.469 1211.24C735.949 1205.04 613.646 1175.71 508.414 1126.27C484.82 1115.13 435.44 1088.04 414.432 1074.72C292.589 997.245 201.086 897.299 145.734 781.215C125.873 739.843 109.727 691.225 100.382 645.567C95.4875 621.657 95.0465 620.216 95.9626 629.354C97.0322 640.176 103.252 668.77 108.556 688.225C160.687 875.685 306.088 1036.98 508.444 1131.69C609.766 1179.1 715.601 1206.63 836.789 1216.85C864.089 1219.18 948.553 1219.67 977.706 1217.65C1120.15 1207.74 1247.01 1172.19 1366.79 1108.54C1416.31 1082.2 1465.65 1048.64 1509.91 1011.15C1636.67 903.761 1719.36 764.802 1743.68 618.314C1749.97 580.607 1751.31 561.105 1751.07 515.985C1750.82 470.864 1749.27 451.382 1742.57 413.768C1719.63 284.94 1649.79 159.573 1544.57 59.0017C1526.57 41.8019 1490.17 11.376 1468.13 -4.95295C1364.92 -80.8713 1241.91 -134.149 1107.93 -160.998C1067.31 -169.013 1028.01 -174.27 977.172 -178.363C957.528 -179.909 864.26 -179.972 843.044 -178.498Z" fill="white"/>
<path d="M844.573 -136.275C647.865 -121.77 470.519 -51.6903 333.278 65.6346C283.699 108.099 243.518 152.904 208.286 205.254C187.089 236.688 164.003 292.201 150.854 343.192C144.914 365.976 139.01 395.377 138.064 407.176C137.38 414.039 138.092 412.229 142.05 396.799C169.332 289.757 225.832 192.736 310.552 107.789C331.085 87.1885 379.086 46.6605 402.242 30.3732C518.167 -51.0643 654.466 -102.805 799.181 -120.312C834.097 -124.53 848.962 -125.597 889.382 -126.725C1047.02 -130.727 1201.4 -96.0807 1331 -27.4479C1383.27 0.218749 1424.42 27.9639 1470.11 66.2658C1637.34 206.828 1717.22 399.026 1690.87 597.63C1674.92 718.189 1617.37 834.349 1525.79 930.535C1505.83 951.492 1487.44 968.588 1460.86 990.916C1448.06 1001.6 1442.32 1006.93 1447.78 1002.8C1462.31 992.109 1498.95 960.204 1514.03 945.418C1577.93 882.036 1630.49 803.934 1661.11 726.589C1690.45 652.742 1703.89 575.638 1700.73 498.893C1698.04 430.206 1685.6 373.018 1659.26 308.349C1607.32 181.17 1511.14 71.2702 1382.06 -8.55655C1264.43 -81.2446 1126.46 -124.309 973.792 -136.105C952.848 -137.762 865.643 -137.868 844.573 -136.275Z" fill="white"/>
<path d="M857.764 -100.27C612.832 -86.2663 392.541 25.0274 261.97 200.663C247.064 220.743 238.767 234.759 228.35 257.213C205.661 306.226 191.76 351.807 183.525 403.726C178.221 437.094 176.92 463.334 178.045 510.855C178.431 528.66 180.859 523.83 180.901 505.059C181.055 453.799 198.118 379.317 222.93 322.468C290.376 167.493 431.891 39.5495 610.552 -27.7718C761.261 -84.5476 925.781 -97.5019 1087.08 -65.191C1139.11 -54.8496 1183.22 -41.8051 1229.96 -23.0035C1300.71 5.37482 1359.66 39.8528 1417.38 86.3722C1538.61 184.183 1612.02 302.426 1634.55 436.189C1642.91 486.066 1644.2 537.436 1638.26 585.969C1621.11 725.428 1548.04 853.971 1428.89 953.841C1312.33 1051.53 1164.39 1112.37 1002.35 1129.4C958.914 1134.04 891.355 1135.72 854.38 1133.09C758.477 1126.43 680.275 1109.18 597.802 1076.55C448.482 1017.44 326.949 917.467 255.391 794.879C245.481 777.863 232.204 752.448 227.086 740.572C225.187 736.494 223.437 733.258 223.149 733.5C222.863 733.863 225.497 740.463 229.149 748.258C259.254 814.826 305.367 878.273 363.712 934.294C393.9 963.199 441.018 998.964 481.579 1023.83C543.29 1061.65 618.539 1093.25 693.289 1112.81C973.638 1186.4 1280.19 1113.48 1475.09 927.043C1555.38 850.309 1614.04 753.153 1640.07 654.181C1677.13 513.018 1654.37 364.335 1576.44 237.581C1514.82 137.303 1419.64 51.221 1304.54 -8.36935C1172.49 -76.7441 1014.51 -109.199 857.764 -100.27Z" fill="white"/>
<path d="M92.3761 607.119C92.3866 609.044 92.6793 609.764 93.1059 608.558C93.3887 607.473 93.3795 605.789 93.0862 604.948C92.6491 604.229 92.365 605.074 92.3761 607.119Z" fill="white"/>
<path d="M93.8754 617.336C93.8879 619.622 94.1819 620.583 94.6084 619.377C94.8913 618.292 94.8808 616.367 94.5855 615.165C94.1465 614.086 93.863 615.05 93.8754 617.336Z" fill="white"/>
<path d="M32.2192 721.974C32.2264 723.298 32.6615 723.656 33.0893 722.69C33.5179 721.845 33.3676 720.763 32.9325 720.405C32.4968 719.927 32.0676 720.652 32.2192 721.974Z" fill="white"/>
</g>
<defs>
<filter id="filter0_d_12_324" x="0.798584" y="-249.367" width="1838.06" height="1546.96" filterUnits="userSpaceOnUse" color-interpolation-filters="sRGB">
<feFlood flood-opacity="0" result="BackgroundImageFix"/>
<feColorMatrix in="SourceAlpha" type="matrix" values="0 0 0 0 0 0 0 0 0 0 0 0 0 0 0 0 0 0 127 0" result="hardAlpha"/>
<feOffset dy="4"/>
<feGaussianBlur stdDeviation="2"/>
<feComposite in2="hardAlpha" operator="out"/>
<feColorMatrix type="matrix" values="0 0 0 0 0 0 0 0 0 0 0 0 0 0 0 0 0 0 0.25 0"/>
<feBlend mode="normal" in2="BackgroundImageFix" result="effect1_dropShadow_12_324"/>
<feBlend mode="normal" in="SourceGraphic" in2="effect1_dropShadow_12_324" result="shape"/>
</filter>
</defs>
</svg>
